<?xml version="1.0" encoding="utf-8"?>
<!-- Generator: Adobe Illustrator 22.0.1, SVG Export Plug-In . SVG Version: 6.00 Build 0)  -->
<svg version="1.1" id="Layer_1" xmlns="http://www.w3.org/2000/svg" xmlns:xlink="http://www.w3.org/1999/xlink" x="0px" y="0px"
	 viewBox="0 0 121.7 121.7" style="enable-background:new 0 0 121.7 121.7;" xml:space="preserve">
<title>facebook</title>
<g id="Layer_2_1_">
	<g id="Layer_1-2">
		<path d="M120.4,60.8c0-32.9-26.6-59.5-59.5-59.6C28,1.3,1.3,27.9,1.3,60.8c0,32.9,26.6,59.5,59.5,59.6c0,0,0,0,0,0
			C93.7,120.4,120.4,93.7,120.4,60.8z M6.7,60.8C6.7,31,31,6.7,60.9,6.8S115,31,115,60.9c0,29.9-24.2,54.1-54.1,54.1
			C31,115,6.7,90.8,6.7,60.8C6.7,60.9,6.7,60.9,6.7,60.8z"/>
		<path d="M60.8,121.7C27.2,121.7,0,94.5,0,60.8S27.2,0,60.8,0s60.8,27.2,60.8,60.8l0,0C121.7,94.4,94.4,121.7,60.8,121.7z
			 M60.8,2.6C28.7,2.6,2.6,28.7,2.6,60.8s26.1,58.2,58.2,58.2s58.2-26.1,58.2-58.2l0,0C119,28.7,93,2.7,60.8,2.6z M60.8,116.3
			c-30.6,0-55.4-24.8-55.4-55.4S30.2,5.4,60.8,5.4s55.4,24.8,55.4,55.4c0,0,0,0,0,0C116.2,91.4,91.4,116.2,60.8,116.3z M60.8,8
			C31.7,8,8,31.6,8,60.8s23.6,52.8,52.8,52.8c29.2,0,52.8-23.6,52.8-52.8c0,0,0,0,0,0C113.6,31.7,90,8,60.8,8z"/>
		<path d="M63.1,95.2V60.8h11.3l1.8-11.4H63.1v-5.7c0-3,1-5.8,5.2-5.8h8.5V26.6H64.8c-10.2,0-13,6.7-13,16v6.9h-7v11.4h7v34.4H63.1z
			"/>
	</g>
</g>
</svg>
