<svg xmlns="http://www.w3.org/2000/svg" xmlns:xlink="http://www.w3.org/1999/xlink" viewBox="0 0 1202.28 335.02"><defs><style>.cls-1{fill:url(#New_Gradient_Swatch_1);}.cls-2{fill:#fff;}</style><linearGradient id="New_Gradient_Swatch_1" x1="77.66" y1="272.34" x2="263.83" y2="86.17" gradientUnits="userSpaceOnUse"><stop offset="0" stop-color="#d41559"/><stop offset="1" stop-color="#ffa800"/></linearGradient></defs><title>horizontal_typebranco</title><g id="horizontal_typebranco"><path class="cls-1" d="M43.59,170.74c.27,3.17-.42,9.86,0,13l1.31,7.57c.31,1.82.74,3.62,1.09,5.43l.57,2.72c.19.91.45,1.8.67,2.7l1.41,5.48,1.62,5.17c.28.86.53,1.72.84,2.59l1,2.64c.66,1.74,1.27,3.53,2,5.24l2.17,5.11a160.38,160.38,0,0,0,10.2,19.5l1.42,2.33,1.52,2.27c1,1.5,2,3,3,4.5,2.17,2.89,4.28,5.8,6.6,8.51s4.69,5.38,7,8c1.22,1.28,2.48,2.5,3.7,3.75l1.86,1.84,1.92,1.77a148,148,0,0,0,15.87,12.83c1.38.93,2.76,1.85,4.12,2.78s2.8,1.72,4.18,2.59c2.76,1.74,5.62,3.22,8.4,4.74a143,143,0,0,0,33.35,12.4,132.48,132.48,0,0,0,29.76,3.59A130.07,130.07,0,0,0,212.14,318l4.43-.81c1.4-.25,2.68-.62,3.88-.89,2.4-.58,4.43-1.07,6.06-1.6l5-1.52-5.09,1.06c-1.65.39-3.71.7-6.13,1.09-1.21.16-2.5.42-3.9.56l-4.44.49a140.47,140.47,0,0,1-22.59.33c-2.18-.16-4.41-.41-6.71-.62s-4.63-.68-7-1l-7.35-1.42c-2.48-.65-5-1.2-7.59-1.95l-3.86-1.16c-.65-.21-1.31-.39-2-.61l-1.95-.69c-1.3-.48-2.62-.94-4-1.42s-2.61-1.07-3.94-1.61c-2.68-1-5.3-2.32-8-3.56-1.35-.59-2.65-1.35-4-2s-2.68-1.35-4-2.15A152.81,152.81,0,0,1,98.5,275.6l-1.79-1.71L95,272.09c-1.15-1.21-2.32-2.4-3.46-3.64-2.19-2.54-4.48-5-6.54-7.75-4.26-5.3-8.65-12.71-12.25-18.64a127.31,127.31,0,0,1-9.09-16.88l-2-4.86c-.66-1.63-1.2-3.26-1.81-4.9L58.92,213c-.29-.83-.55-1.72-.81-2.58l-1.6-5.18-1.33-5c-.21-.85-.46-1.7-.65-2.56L54,195.06c-.35-1.73-.77-3.44-1.07-5.17l-.85-5.19c-.33-2.38-1.08-6.19-1.32-8.56m.86,6.27c-.08-1.6-1-6.47-1-8.08l0-2.52.06-2.52a157.34,157.34,0,0,1,1.56-19.67c.26-1.59.5-3.18.76-4.76s.61-3.12.91-4.67c.58-3.1,1.43-6.11,2.18-9.09.37-1.51.89-2.94,1.32-4.4s.84-2.92,1.38-4.31c1-2.81,2-5.61,3.14-8.26.56-1.35,1.08-2.68,1.66-4s1.21-2.57,1.8-3.84c.31-.64.6-1.27.9-1.9s.65-1.22,1-1.83c.66-1.22,1.29-2.42,1.93-3.62,1.29-2.36,2.72-4.59,4-6.82s2.83-4.27,4.22-6.3,2.86-4,4.3-5.79,2.91-3.58,4.35-5.25a142.59,142.59,0,0,1,16.37-16L105.87,56c1.09-.91,2.19-1.65,3.19-2.39,2-1.47,3.68-2.73,5.15-3.63l4.4-2.89L114,49.55c-1.53.78-3.33,1.89-5.47,3.2-1,.67-2.24,1.32-3.41,2.15l-3.75,2.6a131.78,131.78,0,0,0-17.7,15.13A134.2,134.2,0,0,0,65,96.55a144.91,144.91,0,0,0-14.92,32.8c-.9,3.08-1.87,6.19-2.59,9.4-.37,1.61-.83,3.21-1.13,4.85s-.63,3.29-.94,5c-3.28,19.34-2.24,29.38-2.2,31.16"/><path class="cls-1" d="M156.22,320.64a147.41,147.41,0,0,1-32.47-12.34l-1.8-1c-2.27-1.23-4.62-2.5-7-4l-1.41-.85c-1-.57-1.94-1.16-2.94-1.85l-4.08-2.76a151.29,151.29,0,0,1-16.51-13.34l-2-1.86-1.86-1.84c-.5-.52-1-1-1.44-1.45-.79-.79-1.58-1.58-2.35-2.39l-.1-.11L80.59,275c-1.82-2-3.7-4.05-5.48-6.29-2-2.3-3.78-4.71-5.52-7.05l-1.23-1.64C67.6,259,66.94,258,66.27,257c-.36-.55-.72-1.09-1.09-1.63l-1.67-2.5-1.41-2.33A161.77,161.77,0,0,1,51.6,230.5l-2.21-5.21c-.5-1.23-.94-2.43-1.38-3.63-.22-.61-.44-1.21-.67-1.81l-1-2.67c-.24-.68-.45-1.33-.64-2l-2-6.28-1.62-6.34c-.18-.68-.36-1.35-.5-2l-.57-2.75c-.14-.69-.28-1.33-.41-2-.26-1.21-.52-2.43-.72-3.65,0,0-1.55-10.64-1.52-12.36,0,0-.29-2.52-.29-3.78,0,0-.2-7.29.07-10.91s.88-9.48,2.22-17.43l1-5c.21-1.17.49-2.29.76-3.38.14-.55.27-1.09.4-1.64.62-2.81,1.42-5.5,2.19-8.09l.48-1.63a149.92,149.92,0,0,1,15.46-34A139.85,139.85,0,0,1,80,69.1,137.62,137.62,0,0,1,98.36,53.41l.71-.5,3.11-2.16c.89-.62,1.76-1.15,2.52-1.61.37-.22.74-.44,1.08-.66l.32-.19c2.11-1.3,3.93-2.42,5.59-3.26l4.53-2.42,5.18,8.68L117,54.19l-.12.08c-1.23.76-2.8,1.91-4.61,3.25l-.19.14-1.06.78c-.67.48-1.3.93-1.89,1.43l-3.58,2.88A137.64,137.64,0,0,0,89.81,78.1c-.9,1-1.8,2.14-2.71,3.26l-1.52,1.85c-.9,1.16-1.79,2.37-2.69,3.61-.47.65-1,1.3-1.44,2q-1.23,1.8-2.47,3.68L77.4,94.82c-.45.78-.92,1.55-1.4,2.34-.83,1.38-1.69,2.8-2.46,4.22l-2.27,4.26c-.18.33-.36.65-.53,1l-.87,1.84c-.33.74-.7,1.52-1.07,2.31l-.71,1.51c-.31.7-.64,1.5-1,2.3-.2.5-.4,1-.61,1.5-.84,1.93-1.56,3.93-2.32,6l-.74,2c-.31.81-.56,1.63-.82,2.49-.15.52-.31,1.05-.48,1.57s-.33,1.07-.5,1.6c-.27.88-.54,1.7-.73,2.49s-.38,1.49-.57,2.21c-.59,2.28-1.15,4.43-1.56,6.62-.11.61-.24,1.21-.37,1.8-.2.93-.38,1.81-.5,2.63l-.36,2.31c-.13.83-.26,1.66-.4,2.49a154.2,154.2,0,0,0-1.51,19s.28,7.28.46,8.51c.12.83.22,1.55.31,2.17l.09.56c.21,1.26.42,2.47.56,3.45l.83,5.09c.15.91.37,1.88.58,2.84.15.72.31,1.43.45,2.15l.54,2.51c.1.41.22.85.33,1.29s.2.74.29,1.11l1.28,4.84,1.8,5.83c.17.56.34,1.11.52,1.64l.87,2.42c.21.54.42,1.14.63,1.73.36,1,.71,2,1.11,3l2,4.81A123.91,123.91,0,0,0,77,239.4L78,241c3.39,5.58,7.22,11.92,10.9,16.49l.1.12c1.43,1.9,3,3.68,4.65,5.57.54.62,1.09,1.24,1.62,1.86.74.8,1.49,1.58,2.24,2.36l2.75,2.86,1.72,1.64A147.89,147.89,0,0,0,131.52,294l.13.07c.7.43,1.47.82,2.28,1.24.48.25,1,.5,1.43.76s.93.48,1.39.73c.8.42,1.56.83,2.26,1.13l1.53.71c2.17,1,4.22,2,6.28,2.78l1.54.64c.79.33,1.57.66,2.36.95l1.49.54,2.39.86,1.94.69.81.25,1,.3,3.76,1.14c1.48.43,3.08.82,4.62,1.19.89.22,1.76.43,2.62.66l7.09,1.37,2.41.37c1.46.22,2.9.44,4.32.61l2.36.23c1.42.14,2.81.28,4.18.38a134.43,134.43,0,0,0,21.77-.32l4.34-.48c.79-.08,1.51-.2,2.2-.31l1.57-.24.54-.09c2-.32,3.79-.59,5.08-.91l.15,0,5.1-1.06L233,318l-5,1.52c-1.65.55-3.71,1-6.08,1.62l-.27.06-1.3.31c-.85.22-1.82.46-2.88.65l-4.41.8a133.64,133.64,0,0,1-23.91,1.94,137.24,137.24,0,0,1-30.87-3.73ZM38.13,170.73Zm1.09,2.09"/><path class="cls-1" d="M130.52,50.51l19.25-9.09L152,53.62a2.53,2.53,0,0,0,4.38,1.22L190.5,16.2a2.51,2.51,0,0,0,.4-2.75A2.53,2.53,0,0,0,188.52,12L137,13.83a2.52,2.52,0,0,0-2.22,1.5,2.55,2.55,0,0,0,.38,2.66l8,9.46-19.25,9.1a2.54,2.54,0,0,0-1.3,1.43,2.49,2.49,0,0,0,.1,1.93l4.43,9.4a2.53,2.53,0,0,0,3.37,1.2Zm0,0"/><path class="cls-1" d="M164.79,287.4a112.54,112.54,0,0,1-27.24-10.8h0a111.48,111.48,0,1,1,27.24,10.8ZM214.88,87a94.42,94.42,0,0,0-68.72,174.15h0a94.4,94.4,0,0,0,91.66-165A95.19,95.19,0,0,0,214.88,87Z"/><path class="cls-1" d="M135.27,268.31a80.41,80.41,0,0,1-19.41-7.77l8.6-15.49c31.16,17.3,60.42,2.49,88.71-11.84C237.72,220.79,263.1,208,286.56,221L278,236.46c-15.24-8.47-34.49,1.28-56.77,12.56C196.69,261.42,167.21,276.34,135.27,268.31Z"/><path class="cls-1" d="M111.19,141.68a57.24,57.24,0,0,1-13.77-5.48l8.6-15.5c21.3,11.84,46.84.1,73.88-12.33,29.42-13.52,59.84-27.49,88.21-11.74l-8.6,15.49c-20.52-11.4-45.63.14-72.21,12.36C162.1,136.05,136.18,148,111.19,141.68Z"/><path class="cls-1" d="M109,207.26A98.67,98.67,0,0,1,85,197.66l8.61-15.49C133,204,169.18,185.62,204.19,167.82c31-15.77,63.14-32.09,93.81-15l-8.61,15.49c-22.43-12.46-47.8.43-77.17,15.36C181.28,199.35,146.92,216.81,109,207.26Z"/><path class="cls-2" d="M400.37,211.62h-1c-5,0-8.4-3.17-10.47-8.05l-20-46.18a12.25,12.25,0,0,1-1-4.51,9.09,9.09,0,0,1,9-8.65c5,0,7.68,2.8,9,6.58l14,37.9,14.26-38.15c1.22-3.16,3.78-6.33,8.65-6.33a8.76,8.76,0,0,1,8.9,8.77,13.13,13.13,0,0,1-1,4.39l-20,46.18C408.78,208.33,405.37,211.62,400.37,211.62Z"/><path class="cls-2" d="M435.23,129.36c0-5.36,4.51-8.65,10.36-8.65S456,124,456,129.36v.25c0,5.36-4.51,8.77-10.36,8.77s-10.36-3.41-10.36-8.77Zm1.1,24.13a9.26,9.26,0,0,1,18.52,0v48.26a9.26,9.26,0,0,1-18.52,0Z"/><path class="cls-2" d="M459.85,191.51v-.24c0-14.26,10.85-20.84,26.32-20.84a46.25,46.25,0,0,1,16,2.68V172c0-7.67-4.75-11.94-14-11.94a42.43,42.43,0,0,0-12.8,1.83,7.92,7.92,0,0,1-2.68.49,7.55,7.55,0,0,1-7.67-7.56,7.68,7.68,0,0,1,5-7.19c5.85-2.19,12.19-3.41,20.84-3.41,10.11,0,17.43,2.68,22.06,7.31,4.87,4.88,7.07,12.06,7.07,20.84v29.73a8.9,8.9,0,0,1-9,8.9c-5.36,0-8.9-3.78-8.9-7.68v-.12c-4.51,5-10.72,8.29-19.74,8.29C470,211.5,459.85,204.43,459.85,191.51Zm42.53-4.27V184a28.76,28.76,0,0,0-11.82-2.43c-7.92,0-12.8,3.17-12.8,9v.24c0,5,4.15,7.92,10.12,7.92C496.53,198.7,502.38,194,502.38,187.24Z"/><path class="cls-2" d="M532.73,225.51a7.57,7.57,0,1,1,5.36-14.14,42.2,42.2,0,0,0,18,3.9c12.67,0,18.64-6.09,18.64-17.79v-3.17c-5.48,6.58-11.45,10.6-21.32,10.6-15.23,0-29-11.08-29-30.46v-.24c0-19.5,14-30.47,29-30.47,10.11,0,16.08,4.27,21.08,9.75v-.12a9.26,9.26,0,0,1,18.52.12v42c0,11.7-2.8,20.23-8.28,25.71-6.1,6.1-15.48,8.78-28.15,8.78A62.79,62.79,0,0,1,532.73,225.51Zm42-51.06v-.24c0-8.9-6.94-15.12-16-15.12S543,165.31,543,174.21v.24c0,9,6.82,15.11,15.84,15.11S574.77,183.34,574.77,174.45Z"/><path class="cls-2" d="M632.06,211.74c-19.62,0-34.12-13.77-34.12-33.76v-.24c0-18.65,13.28-34,32.29-34,21.81,0,31.44,17.92,31.44,31.44,0,5.36-3.78,8.9-8.65,8.9H616.34c1.82,8.4,7.67,12.79,16,12.79a21.33,21.33,0,0,0,13.16-4.39A6.94,6.94,0,0,1,650,191a7.08,7.08,0,0,1,7.19,7.31,7.29,7.29,0,0,1-2.44,5.49C649,208.69,641.56,211.74,632.06,211.74ZM644,172.5c-1.1-8.29-6-13.89-13.77-13.89s-12.67,5.48-14.14,13.89Z"/><path class="cls-2" d="M667.29,153.49a9.26,9.26,0,1,1,18.52,0v.73c4.26-5.48,9.75-10.48,19.13-10.48,14,0,22.18,9.26,22.18,24.25v33.76a9.26,9.26,0,1,1-18.52,0V173.84c0-8.77-4.15-13.28-11.22-13.28s-11.57,4.51-11.57,13.28v27.91a9.26,9.26,0,0,1-18.52,0Z"/><path class="cls-2" d="M733,204.06a7.39,7.39,0,0,1-3.54-6.34,7.18,7.18,0,0,1,7.31-7.31,7.1,7.1,0,0,1,3.66,1c6.21,3.9,12.43,5.85,17.67,5.85s7.8-2,7.8-4.88v-.24c0-4-6.34-5.36-13.53-7.56-9.14-2.68-19.5-6.94-19.5-19.61v-.25c0-13.28,10.73-20.71,23.89-20.71A45.92,45.92,0,0,1,777,149a7.54,7.54,0,0,1,4.38,7,7.28,7.28,0,0,1-7.43,7.31,6.85,6.85,0,0,1-3.41-.85c-5.24-2.56-10.24-4.15-14.14-4.15-4.5,0-6.82,1.95-6.82,4.51V163c0,3.66,6.21,5.37,13.28,7.8,9.14,3.05,19.74,7.44,19.74,19.38v.24c0,14.5-10.84,21.09-25,21.09A45.5,45.5,0,0,1,733,204.06Z"/><path class="cls-2" d="M811.22,152.88a9.26,9.26,0,0,1,18.52,0v.73c4.27-5.48,9.75-10.48,19.13-10.48,14,0,22.18,9.26,22.18,24.25v33.76a9.26,9.26,0,1,1-18.52,0V173.23c0-8.77-4.14-13.28-11.21-13.28s-11.58,4.51-11.58,13.28v27.91a9.26,9.26,0,1,1-18.52,0Z"/><path class="cls-2" d="M874.72,190.9v-.24c0-14.26,10.84-20.84,26.32-20.84a46.49,46.49,0,0,1,16,2.68v-1.1c0-7.67-4.75-11.94-14-11.94a42.43,42.43,0,0,0-12.8,1.83,7.68,7.68,0,0,1-2.68.49,7.54,7.54,0,0,1-7.67-7.56,7.68,7.68,0,0,1,5-7.19c5.85-2.19,12.19-3.41,20.84-3.41,10.11,0,17.43,2.68,22.06,7.31,4.87,4.88,7.06,12.07,7.06,20.84V201.5a8.89,8.89,0,0,1-9,8.9c-5.37,0-8.9-3.78-8.9-7.68v-.12c-4.51,5-10.72,8.29-19.74,8.29C884.83,210.89,874.72,203.82,874.72,190.9Zm42.53-4.26v-3.29a28.6,28.6,0,0,0-11.82-2.44c-7.92,0-12.8,3.17-12.8,9v.24c0,5,4.14,7.92,10.12,7.92C911.4,198.09,917.25,193.34,917.25,186.64Z"/><path class="cls-2" d="M982.33,202.6l-16-46.06a15.53,15.53,0,0,1-.85-4.51,8.54,8.54,0,0,1,8.89-8.41c4.63,0,7.68,2.92,9,7.19l10,33.15,10.24-33c1.34-4.39,4.75-7.43,9.5-7.43h1.1c4.75,0,8.17,3,9.5,7.43l10.36,33.15,10.24-33.39c1.22-3.9,4-7.07,8.89-7.07a8.44,8.44,0,0,1,8.66,8.53,16.5,16.5,0,0,1-.61,3.78l-16.45,46.67c-1.95,5.73-5.73,8.29-10.24,8.29H1034c-4.51,0-8.28-2.56-10-7.92l-10.36-32.91L1003.17,203c-1.7,5.36-5.48,7.92-10,7.92h-.61C988.06,210.89,984.28,208.33,982.33,202.6Z"/><path class="cls-2" d="M1094.58,211.13c-19.62,0-34.12-13.77-34.12-33.76v-.24c0-18.64,13.29-34,32.29-34,21.82,0,31.44,17.92,31.44,31.44,0,5.36-3.77,8.9-8.65,8.9h-36.68c1.83,8.41,7.68,12.79,16,12.79a21.41,21.41,0,0,0,13.16-4.38,6.88,6.88,0,0,1,4.5-1.47,7.08,7.08,0,0,1,7.19,7.31,7.28,7.28,0,0,1-2.43,5.49C1111.52,208.08,1104.09,211.13,1094.58,211.13Zm12-39.24c-1.1-8.28-6-13.89-13.78-13.89s-12.67,5.48-14.13,13.89Z"/><path class="cls-2" d="M1129.81,129.24a9.26,9.26,0,1,1,18.52,0v24.5c4.51-6.1,10.72-10.61,20.35-10.61,15.23,0,29.74,12,29.74,33.76v.24c0,21.81-14.26,33.76-29.74,33.76-9.87,0-16-4.51-20.35-9.75v.12a9.26,9.26,0,0,1-18.52-.12Zm50.08,47.89v-.24c0-10.85-7.31-18-16-18s-15.84,7.19-15.84,18v.24c0,10.85,7.19,18,15.84,18S1179.89,188.1,1179.89,177.13Z"/></g></svg>