<?xml version="1.0" encoding="utf-8"?>
<!-- Generator: Adobe Illustrator 22.0.1, SVG Export Plug-In . SVG Version: 6.00 Build 0)  -->
<svg version="1.1" id="Layer_1" xmlns="http://www.w3.org/2000/svg" xmlns:xlink="http://www.w3.org/1999/xlink" x="0px" y="0px"
	 viewBox="0 0 121.7 121.7" style="enable-background:new 0 0 121.7 121.7;" xml:space="preserve">
<title>instagram</title>
<g id="Layer_2_1_">
	<g id="Layer_1-2">
		<path d="M76,25.1H44.2c-10.8,0-19.6,8.8-19.6,19.6v31.9c0,10.8,8.8,19.6,19.6,19.6H76c10.9,0,19.7-8.8,19.7-19.6V44.7
			C95.7,33.9,86.9,25.1,76,25.1C76,25.1,76,25.1,76,25.1z M89.3,76.6c0,7.4-6,13.3-13.3,13.3H44.2c-7.4,0-13.3-6-13.3-13.3V44.7
			c0-7.4,6-13.3,13.3-13.3H76c7.4,0,13.3,5.9,13.4,13.3c0,0,0,0,0,0L89.3,76.6z"/>
		<path d="M76,97H44.2c-11.3,0-20.4-9.1-20.4-20.4V44.7c0-11.3,9.1-20.4,20.4-20.4H76c11.3,0,20.4,9.1,20.5,20.4c0,0,0,0,0,0v31.9
			C96.4,87.9,87.3,97,76,97z M44.2,25.9c-10.4,0-18.8,8.4-18.8,18.9v31.9c0,10.4,8.4,18.8,18.8,18.8H76c10.4,0,18.9-8.4,18.9-18.8
			c0,0,0,0,0,0V44.7c0-10.4-8.5-18.9-18.9-18.9H44.2z M76,90.7H44.2c-7.8,0-14.1-6.3-14.1-14.1V44.7c0-7.8,6.3-14.1,14.1-14.1H76
			c7.8,0,14.1,6.3,14.2,14.1c0,0,0,0,0,0v31.9C90.1,84.4,83.8,90.7,76,90.7C76,90.7,76,90.7,76,90.7z M44.2,32.2
			c-6.9,0-12.5,5.6-12.5,12.5v31.9c0,6.9,5.6,12.5,12.5,12.5H76c6.9,0,12.6-5.6,12.6-12.5c0,0,0,0,0,0V44.7
			c0-6.9-5.6-12.5-12.5-12.5c0,0,0,0,0,0H44.2z"/>
		<path d="M60.1,42.3c-10.1,0-18.3,8.2-18.3,18.3S50,79,60.1,79s18.3-8.2,18.3-18.3C78.4,50.5,70.2,42.3,60.1,42.3z M60.1,72.7
			c-6.6,0-12-5.4-12-12s5.4-12,12-12s12,5.4,12,12l0,0C72.1,67.3,66.7,72.7,60.1,72.7z"/>
		<path d="M60.1,79.8C49.5,79.8,41,71.2,41,60.6s8.6-19.1,19.1-19.1s19.1,8.6,19.1,19.1v0C79.2,71.2,70.7,79.8,60.1,79.8z
			 M60.1,43.1c-9.7,0-17.5,7.9-17.5,17.5s7.9,17.5,17.5,17.5s17.5-7.9,17.5-17.5C77.6,51,69.8,43.1,60.1,43.1z M60.1,73.5
			c-7.1,0-12.8-5.7-12.8-12.8c0-7.1,5.7-12.8,12.8-12.8c7.1,0,12.8,5.7,12.8,12.8C72.9,67.7,67.2,73.5,60.1,73.5z M60.1,49.5
			c-6.2,0-11.2,5-11.2,11.2c0,6.2,5,11.2,11.2,11.2s11.2-5,11.2-11.2c0,0,0,0,0,0C71.3,54.5,66.3,49.4,60.1,49.5L60.1,49.5z"/>
		<path d="M79.2,37c-2.6,0-4.6,2.1-4.7,4.6c0,2.6,2.1,4.6,4.6,4.7s4.6-2.1,4.7-4.6c0-1.2-0.5-2.4-1.4-3.3C81.6,37.5,80.4,37,79.2,37
			z"/>
		<path d="M79.2,47c-3,0-5.4-2.4-5.4-5.4c0-3,2.4-5.4,5.4-5.4c3,0,5.4,2.4,5.4,5.4c0,1.5-0.6,2.9-1.6,3.9C82,46.4,80.6,47,79.2,47z
			 M79.2,37.7c-2.1,0-3.9,1.7-3.9,3.8c0,2.1,1.7,3.9,3.8,3.9s3.9-1.7,3.9-3.8c0,0,0,0,0,0C83,39.5,81.3,37.8,79.2,37.7
			C79.2,37.8,79.2,37.8,79.2,37.7L79.2,37.7z"/>
		<path d="M120.4,60.8c0-32.9-26.6-59.5-59.5-59.6C28,1.3,1.3,27.9,1.3,60.8c0,32.9,26.6,59.5,59.5,59.6c0,0,0,0,0,0
			C93.7,120.4,120.4,93.7,120.4,60.8z M6.7,60.8C6.7,31,31,6.7,60.9,6.8S115,31,115,60.9c0,29.9-24.2,54.1-54.1,54.1
			C31,115,6.7,90.8,6.7,60.8C6.7,60.9,6.7,60.9,6.7,60.8z"/>
		<path d="M60.8,121.7C27.2,121.7,0,94.5,0,60.8S27.2,0,60.8,0s60.8,27.2,60.8,60.8l0,0C121.7,94.4,94.4,121.7,60.8,121.7z
			 M60.8,2.6C28.7,2.6,2.6,28.7,2.6,60.8s26.1,58.2,58.2,58.2s58.2-26.1,58.2-58.2l0,0C119,28.7,93,2.7,60.8,2.6z M60.8,116.3
			c-30.6,0-55.4-24.8-55.4-55.4S30.2,5.4,60.8,5.4s55.4,24.8,55.4,55.4c0,0,0,0,0,0C116.2,91.4,91.4,116.2,60.8,116.3z M60.8,8
			C31.7,8,8,31.6,8,60.8s23.6,52.8,52.8,52.8c29.2,0,52.8-23.6,52.8-52.8c0,0,0,0,0,0C113.6,31.7,90,8,60.8,8z"/>
	</g>
</g>
</svg>
