<svg xmlns="http://www.w3.org/2000/svg" width="35" height="35" viewBox="0 0 35 35">
  <metadata><?xpacket begin="﻿" id="W5M0MpCehiHzreSzNTczkc9d"?>
<x:xmpmeta xmlns:x="adobe:ns:meta/" x:xmptk="Adobe XMP Core 5.6-c140 79.160451, 2017/05/06-01:08:21        ">
   <rdf:RDF xmlns:rdf="http://www.w3.org/1999/02/22-rdf-syntax-ns#">
      <rdf:Description rdf:about=""/>
   </rdf:RDF>
</x:xmpmeta>
                                                                                                    
                                                                                                    
                                                                                                    
                                                                                                    
                                                                                                    
                                                                                                    
                                                                                                    
                                                                                                    
                                                                                                    
                                                                                                    
                                                                                                    
                                                                                                    
                                                                                                    
                                                                                                    
                                                                                                    
                                                                                                    
                                                                                                    
                                                                                                    
                                                                                                    
                                                                                                    
                           
<?xpacket end="w"?></metadata>
<defs>
    <style>
      .cls-1 {
        fill: #2cb742;
      }

      .cls-2 {
        fill: #fff;
        fill-rule: evenodd;
      }
    </style>
  </defs>
  <circle class="cls-1" cx="17" cy="17" r="15"/>
  <path id="Shape_14_copy" data-name="Shape 14 copy" class="cls-2" d="M933,904.052a17.209,17.209,0,0,1-25.485,14.928L898,922l3.1-9.147a16.87,16.87,0,0,1-2.464-8.8,17.181,17.181,0,0,1,34.361,0h0Zm-17.18-14.335a14.4,14.4,0,0,0-14.445,14.335,14.188,14.188,0,0,0,2.751,8.4l-1.8,5.322,5.55-1.763a14.372,14.372,0,1,0,7.948-26.3h0Zm8.676,18.262a2.153,2.153,0,0,0-.807-0.488c-0.422-.209-2.493-1.221-2.879-1.359a0.66,0.66,0,0,0-.947.208c-0.281.418-1.088,1.36-1.335,1.639a0.645,0.645,0,0,1-.911.1,11.538,11.538,0,0,1-3.388-2.074,12.707,12.707,0,0,1-2.343-2.894,0.608,0.608,0,0,1,.184-0.852c0.19-.188.422-0.488,0.632-0.731a2.9,2.9,0,0,0,.422-0.7,0.763,0.763,0,0,0-.036-0.732c-0.105-.208-0.947-2.265-1.3-3.1s-0.7-.7-0.947-0.7-0.526-.035-0.807-0.035a1.55,1.55,0,0,0-1.122.523,4.669,4.669,0,0,0-1.474,3.484,8.082,8.082,0,0,0,1.719,4.322c0.21,0.28,2.912,4.637,7.194,6.31s4.282,1.115,5.054,1.045a4.25,4.25,0,0,0,2.843-1.987,3.482,3.482,0,0,0,.247-1.986h0Zm0,0" transform="translate(-898 -887)"/>
</svg>
