<?xml version="1.0" encoding="utf-8"?>
<!-- Generator: Adobe Illustrator 22.0.1, SVG Export Plug-In . SVG Version: 6.00 Build 0)  -->
<svg version="1.1" id="Layer_1" xmlns="http://www.w3.org/2000/svg" xmlns:xlink="http://www.w3.org/1999/xlink" x="0px" y="0px"
	 viewBox="0 0 121.7 121.7" style="enable-background:new 0 0 121.7 121.7;" xml:space="preserve">
<title>twitter</title>
<g id="Layer_2_1_">
	<g id="Layer_1-2">
		<path d="M86.4,49c0-0.6,0-1.2,0-1.8c2.6-1.9,4.8-4.3,6.6-7.1c-2.4,1.1-4.9,1.8-7.6,2.1c2.8-1.7,4.8-4.4,5.8-7.6
			c-2.6,1.6-5.4,2.7-8.3,3.2c-2.4-2.8-5.9-4.4-9.6-4.5c-7.3-0.1-13.2,6-13.2,13.7c0,1.1,0.1,2.1,0.3,3.2c-10.8-0.8-20.7-6.3-27.1-15
			c-3.5,6.4-1.7,14.4,4.1,18.8c-2.1-0.1-4.2-0.7-6-1.8v0.2c0,6.8,4.5,12.5,10.5,13.8c-1.9,0.6-4,0.6-5.9,0.2
			c1.6,5.6,6.5,9.5,12.3,9.8c-4.6,3.8-10.3,5.9-16.3,6c-1,0-2.1-0.1-3.1-0.2c5.9,4.1,13,6.3,20.2,6.3C73.2,88.3,86.4,67.3,86.4,49
			L86.4,49z"/>
		<path d="M120.4,60.8c0-32.9-26.6-59.5-59.5-59.6C28,1.3,1.3,27.9,1.3,60.8c0,32.9,26.6,59.5,59.5,59.6c0,0,0,0,0,0
			C93.7,120.4,120.4,93.7,120.4,60.8z M6.7,60.8C6.7,31,31,6.7,60.9,6.8S115,31,115,60.9c0,29.9-24.2,54.1-54.1,54.1
			C31,115,6.7,90.8,6.7,60.8C6.7,60.9,6.7,60.9,6.7,60.8z"/>
		<path d="M60.8,121.7C27.2,121.7,0,94.5,0,60.8S27.2,0,60.8,0s60.8,27.2,60.8,60.8l0,0C121.7,94.4,94.4,121.7,60.8,121.7z
			 M60.8,2.6C28.7,2.6,2.6,28.7,2.6,60.8s26.1,58.2,58.2,58.2s58.2-26.1,58.2-58.2l0,0C119,28.7,93,2.7,60.8,2.6z M60.8,116.3
			c-30.6,0-55.4-24.8-55.4-55.4S30.2,5.4,60.8,5.4s55.4,24.8,55.4,55.4c0,0,0,0,0,0C116.2,91.4,91.4,116.2,60.8,116.3z M60.8,8
			C31.7,8,8,31.6,8,60.8s23.6,52.8,52.8,52.8c29.2,0,52.8-23.6,52.8-52.8c0,0,0,0,0,0C113.6,31.7,90,8,60.8,8z"/>
	</g>
</g>
</svg>
