<svg xmlns="http://www.w3.org/2000/svg" xmlns:xlink="http://www.w3.org/1999/xlink" preserveAspectRatio="xMidYMid" width="24" height="18" viewBox="0 0 24 18">
  <defs>
    <style>
      .cls-1 {
        fill: #1b1b1b;
        fill-rule: evenodd;
      }
    </style>
  </defs>
  <path d="M23.038,15.353 C22.576,16.383 21.386,17.315 20.269,17.522 C20.161,17.541 17.598,18.000 12.006,18.000 L11.991,18.000 C6.399,18.000 3.837,17.541 3.731,17.522 C2.611,17.315 1.419,16.381 0.959,15.351 C0.921,15.265 0.001,13.166 0.001,9.000 C0.001,4.834 0.921,2.734 0.960,2.647 C1.420,1.616 2.612,0.684 3.731,0.478 C3.837,0.459 6.399,-0.000 11.991,-0.000 C17.598,-0.000 20.161,0.459 20.268,0.478 C21.384,0.683 22.575,1.615 23.038,2.646 C23.077,2.734 23.999,4.834 23.999,9.000 C23.999,13.166 23.077,15.266 23.038,15.353 ZM21.210,3.459 C21.019,3.036 20.372,2.531 19.906,2.445 C19.882,2.441 17.383,2.000 12.006,2.000 C6.614,2.000 4.116,2.441 4.092,2.446 C3.625,2.531 2.978,3.036 2.787,3.463 C2.781,3.478 2.002,5.313 2.002,9.000 C2.002,12.687 2.781,14.521 2.789,14.540 C2.978,14.964 3.625,15.468 4.094,15.555 C4.116,15.559 6.614,16.000 11.991,16.000 L12.006,16.000 C17.383,16.000 19.882,15.559 19.907,15.554 C20.372,15.468 21.020,14.963 21.213,14.534 C21.218,14.521 21.997,12.686 21.997,9.000 C21.997,5.313 21.218,3.478 21.210,3.459 ZM10.503,12.857 C10.345,12.953 10.166,13.000 9.988,13.000 C9.818,13.000 9.648,12.957 9.495,12.870 C9.181,12.693 8.987,12.360 8.987,12.000 L8.987,6.000 C8.987,5.640 9.181,5.307 9.495,5.130 C9.809,4.952 10.194,4.957 10.503,5.143 L15.507,8.143 C15.808,8.323 15.993,8.649 15.993,9.000 C15.993,9.351 15.808,9.677 15.507,9.857 L10.503,12.857 Z" class="cls-1"/>
</svg>
